<svg width="128.03330688476564px" height="121.60000610351562px" xmlns="http://www.w3.org/2000/svg" viewBox="185.98334655761718 14.199996948242188 128.03330688476564 121.60000610351562" style="background: rgba(0, 0, 0, 0);" preserveAspectRatio="xMidYMid"><defs><filter id="editing-extrusion" x="-100%" y="-100%" width="300%" height="300%"><feFlood result="color1" flood-color="#444"></feFlood><feConvolveMatrix order="8,8" divisor="1" kernelMatrix="1 0 0 0 0 0 0 0 0 1 0 0 0 0 0 0 0 0 1 0 0 0 0 0 0 0 0 1 0 0 0 0 0 0 0 0 1 0 0 0 0 0 0 0 0 1 0 0 0 0 0 0 0 0 1 0 0 0 0 0 0 0 0 1" in="SourceAlpha" result="extrude"></feConvolveMatrix><feComposite in="color1" in2="extrude" result="comp-extrude" operator="in"></feComposite><feOffset dx="4" dy="4" in="comp-extrude" result="offset-extrude"></feOffset><feMerge><feMergeNode in="offset-extrude"></feMergeNode><feMergeNode in="SourceGraphic"></feMergeNode></feMerge></filter></defs><g filter="url(#editing-extrusion)"><g transform="translate(213.3398265838623, 96.7599983215332)"><path d="M29.18 1.28L29.18 1.28L29.18 1.28Q20.99 1.28 20.22-10.37L20.22-10.37L9.22-10.37L9.22-10.37Q7.94-7.42 7.04-4.86L7.04-4.86L5.38 0L-3.58 0L16.58-42.24L30.34-42.24L33.02-11.14L33.02-11.14Q33.66-4.42 36.22-2.43L36.22-2.43L36.22-2.43Q34.37 1.28 29.18 1.28ZM14.72-23.17L11.20-15.04L20.03-15.04L19.26-31.49L19.26-33.22L14.72-23.17ZM67.26-9.86L67.26-9.86L67.26-9.86Q68.48-8.32 68.48-5.82L68.48-5.82L68.48-5.82Q68.48-2.37 65.92-0.54L65.92-0.54L65.92-0.54Q63.36 1.28 59.33 1.28L59.33 1.28L59.33 1.28Q57.02 1.28 53.50 0.77L53.50 0.77L53.50 0.77Q46.59-0.32 44.48-0.32L44.48-0.32L44.48-0.32Q42.37-0.32 41.54-0.22L41.54-0.22L41.54-0.22Q40.70-0.13 39.36 0L39.36 0L47.23-42.24L74.82-42.24L74.82-42.24Q74.82-38.34 72.93-36.29L72.93-36.29L72.93-36.29Q71.04-34.24 67.33-34.24L67.33-34.24L67.33-34.24Q63.62-34.24 59.84-35.97L59.84-35.97L57.86-24.77L69.25-24.77L69.25-24.77Q69.25-21.38 67.58-19.49L67.58-19.49L67.58-19.49Q65.92-17.60 63.14-17.60L63.14-17.60L63.14-17.60Q60.35-17.60 58.62-18.24L58.62-18.24L58.62-18.24Q56.90-18.88 56.70-19.07L56.70-19.07L54.40-6.98L54.40-6.98Q55.94-6.78 58.82-6.78L58.82-6.78L58.82-6.78Q63.74-6.78 67.26-9.86Z" fill="#ccc"></path></g></g><style>text {
  font-size: 64px;
  font-family: Arial Black;
  dominant-baseline: central;
  text-anchor: middle;
}</style></svg>